G04 #@! TF.FileFunction,Soldermask,Top*
%FSLAX46Y46*%
G04 Gerber Fmt 4.6, Leading zero omitted, Abs format (unit mm)*
G04 Created by KiCad (PCBNEW 4.0.5+dfsg1-4) date Sun Jun 17 20:11:44 2018*
%MOMM*%
%LPD*%
G01*
G04 APERTURE LIST*
%ADD10C,0.100000*%
%ADD11C,1.000000*%
%ADD12C,2.301600*%
%ADD13R,0.901600X0.851600*%
%ADD14R,0.831600X0.401600*%
%ADD15R,0.401600X0.831600*%
%ADD16R,0.901600X0.451600*%
%ADD17R,0.901600X0.901600*%
%ADD18R,1.001600X0.601600*%
%ADD19R,0.851600X0.901600*%
G04 APERTURE END LIST*
D10*
D11*
X136012306Y-146306191D03*
D12*
X132202306Y-146306190D03*
X198505694Y-146301810D03*
D11*
X194695694Y-146301809D03*
X194695694Y-54607809D03*
D12*
X198505694Y-54607810D03*
X132207000Y-54610000D03*
D13*
X188607000Y-70993000D03*
X190107000Y-70993000D03*
X185547000Y-70992999D03*
X187047000Y-70992999D03*
D14*
X189731000Y-75311000D03*
X189731000Y-74811000D03*
X189731000Y-74311000D03*
X189731000Y-73811000D03*
X189731000Y-73311000D03*
D15*
X188766000Y-72346000D03*
X188266000Y-72346000D03*
X187766000Y-72346000D03*
X187266000Y-72346000D03*
X186766000Y-72346000D03*
D14*
X185801000Y-73311000D03*
X185801000Y-73811000D03*
X185801000Y-74311000D03*
X185801000Y-74811000D03*
X185801000Y-75311000D03*
D15*
X186766000Y-76276000D03*
X187266000Y-76276000D03*
X187766000Y-76276000D03*
X188266000Y-76276000D03*
X188766000Y-76276000D03*
D16*
X191455000Y-73563000D03*
X193355000Y-73563000D03*
X191455000Y-72913000D03*
X193355000Y-72913000D03*
X193355000Y-74213000D03*
X191455000Y-74213000D03*
X191455000Y-72263000D03*
X193355000Y-72263000D03*
D13*
X191782000Y-70993000D03*
X193282000Y-70993000D03*
D17*
X192621000Y-76454000D03*
X194221000Y-76454000D03*
D18*
X191262000Y-76811000D03*
X191262000Y-75311000D03*
D12*
X181737000Y-73787000D03*
D19*
X184150000Y-72082000D03*
X184150000Y-70582000D03*
D16*
X191455000Y-62895000D03*
X193355000Y-62895000D03*
X191455000Y-62245000D03*
X193355000Y-62245000D03*
X193355000Y-63545000D03*
X191455000Y-63545000D03*
X191455000Y-61595000D03*
X193355000Y-61595000D03*
D14*
X189731000Y-64643000D03*
X189731000Y-64143000D03*
X189731000Y-63643000D03*
X189731000Y-63143000D03*
X189731000Y-62643000D03*
D15*
X188766000Y-61678000D03*
X188266000Y-61678000D03*
X187766000Y-61678000D03*
X187266000Y-61678000D03*
X186766000Y-61678000D03*
D14*
X185801000Y-62643000D03*
X185801000Y-63143000D03*
X185801000Y-63643000D03*
X185801000Y-64143000D03*
X185801000Y-64643000D03*
D15*
X186766000Y-65608000D03*
X187266000Y-65608000D03*
X187766000Y-65608000D03*
X188266000Y-65608000D03*
X188766000Y-65608000D03*
D13*
X185547000Y-60324999D03*
X187047000Y-60324999D03*
D17*
X192621000Y-65786000D03*
X194221000Y-65786000D03*
D18*
X191262000Y-66143000D03*
X191262000Y-64643000D03*
D19*
X184150000Y-61414000D03*
X184150000Y-59914000D03*
D12*
X181737000Y-63119000D03*
D13*
X188607000Y-60325000D03*
X190107000Y-60325000D03*
X191782000Y-60325000D03*
X193282000Y-60325000D03*
D14*
X189731000Y-85979000D03*
X189731000Y-85479000D03*
X189731000Y-84979000D03*
X189731000Y-84479000D03*
X189731000Y-83979000D03*
D15*
X188766000Y-83014000D03*
X188266000Y-83014000D03*
X187766000Y-83014000D03*
X187266000Y-83014000D03*
X186766000Y-83014000D03*
D14*
X185801000Y-83979000D03*
X185801000Y-84479000D03*
X185801000Y-84979000D03*
X185801000Y-85479000D03*
X185801000Y-85979000D03*
D15*
X186766000Y-86944000D03*
X187266000Y-86944000D03*
X187766000Y-86944000D03*
X188266000Y-86944000D03*
X188766000Y-86944000D03*
D13*
X185547000Y-81660999D03*
X187047000Y-81660999D03*
X188607000Y-81661000D03*
X190107000Y-81661000D03*
D17*
X192621000Y-87122000D03*
X194221000Y-87122000D03*
D18*
X191262000Y-87479000D03*
X191262000Y-85979000D03*
D16*
X191455000Y-84231000D03*
X193355000Y-84231000D03*
X191455000Y-83581000D03*
X193355000Y-83581000D03*
X193355000Y-84881000D03*
X191455000Y-84881000D03*
X191455000Y-82931000D03*
X193355000Y-82931000D03*
D18*
X191262000Y-98147000D03*
X191262000Y-96647000D03*
D16*
X191455000Y-94899000D03*
X193355000Y-94899000D03*
X191455000Y-94249000D03*
X193355000Y-94249000D03*
X193355000Y-95549000D03*
X191455000Y-95549000D03*
X191455000Y-93599000D03*
X193355000Y-93599000D03*
D17*
X192621000Y-97790000D03*
X194221000Y-97790000D03*
D12*
X181737000Y-95123000D03*
D19*
X184150000Y-93418000D03*
X184150000Y-91918000D03*
D13*
X191782000Y-81661000D03*
X193282000Y-81661000D03*
D12*
X181737000Y-84455000D03*
D19*
X184150000Y-82750000D03*
X184150000Y-81250000D03*
D13*
X188607000Y-92329000D03*
X190107000Y-92329000D03*
X191782000Y-92329000D03*
X193282000Y-92329000D03*
X185547000Y-92328999D03*
X187047000Y-92328999D03*
D14*
X189731000Y-96647000D03*
X189731000Y-96147000D03*
X189731000Y-95647000D03*
X189731000Y-95147000D03*
X189731000Y-94647000D03*
D15*
X188766000Y-93682000D03*
X188266000Y-93682000D03*
X187766000Y-93682000D03*
X187266000Y-93682000D03*
X186766000Y-93682000D03*
D14*
X185801000Y-94647000D03*
X185801000Y-95147000D03*
X185801000Y-95647000D03*
X185801000Y-96147000D03*
X185801000Y-96647000D03*
D15*
X186766000Y-97612000D03*
X187266000Y-97612000D03*
X187766000Y-97612000D03*
X188266000Y-97612000D03*
X188766000Y-97612000D03*
D14*
X189731000Y-117983000D03*
X189731000Y-117483000D03*
X189731000Y-116983000D03*
X189731000Y-116483000D03*
X189731000Y-115983000D03*
D15*
X188766000Y-115018000D03*
X188266000Y-115018000D03*
X187766000Y-115018000D03*
X187266000Y-115018000D03*
X186766000Y-115018000D03*
D14*
X185801000Y-115983000D03*
X185801000Y-116483000D03*
X185801000Y-116983000D03*
X185801000Y-117483000D03*
X185801000Y-117983000D03*
D15*
X186766000Y-118948000D03*
X187266000Y-118948000D03*
X187766000Y-118948000D03*
X188266000Y-118948000D03*
X188766000Y-118948000D03*
D13*
X188607000Y-113665000D03*
X190107000Y-113665000D03*
X185547000Y-113664999D03*
X187047000Y-113664999D03*
D14*
X189731000Y-107315000D03*
X189731000Y-106815000D03*
X189731000Y-106315000D03*
X189731000Y-105815000D03*
X189731000Y-105315000D03*
D15*
X188766000Y-104350000D03*
X188266000Y-104350000D03*
X187766000Y-104350000D03*
X187266000Y-104350000D03*
X186766000Y-104350000D03*
D14*
X185801000Y-105315000D03*
X185801000Y-105815000D03*
X185801000Y-106315000D03*
X185801000Y-106815000D03*
X185801000Y-107315000D03*
D15*
X186766000Y-108280000D03*
X187266000Y-108280000D03*
X187766000Y-108280000D03*
X188266000Y-108280000D03*
X188766000Y-108280000D03*
D12*
X181737000Y-105791000D03*
D13*
X185547000Y-102996999D03*
X187047000Y-102996999D03*
D19*
X184150000Y-104086000D03*
X184150000Y-102586000D03*
D18*
X191262000Y-108815000D03*
X191262000Y-107315000D03*
D16*
X191455000Y-105567000D03*
X193355000Y-105567000D03*
X191455000Y-104917000D03*
X193355000Y-104917000D03*
X193355000Y-106217000D03*
X191455000Y-106217000D03*
X191455000Y-104267000D03*
X193355000Y-104267000D03*
D17*
X192621000Y-108458000D03*
X194221000Y-108458000D03*
D19*
X184150000Y-114754000D03*
X184150000Y-113254000D03*
D12*
X181737000Y-116459000D03*
D13*
X188607000Y-102997000D03*
X190107000Y-102997000D03*
X191782000Y-102997000D03*
X193282000Y-102997000D03*
D17*
X192621000Y-119126000D03*
X194221000Y-119126000D03*
D18*
X191262000Y-119483000D03*
X191262000Y-117983000D03*
D16*
X191455000Y-116235000D03*
X193355000Y-116235000D03*
X191455000Y-115585000D03*
X193355000Y-115585000D03*
X193355000Y-116885000D03*
X191455000Y-116885000D03*
X191455000Y-114935000D03*
X193355000Y-114935000D03*
D13*
X191782000Y-113665000D03*
X193282000Y-113665000D03*
X185547000Y-124332999D03*
X187047000Y-124332999D03*
D14*
X189731000Y-128651000D03*
X189731000Y-128151000D03*
X189731000Y-127651000D03*
X189731000Y-127151000D03*
X189731000Y-126651000D03*
D15*
X188766000Y-125686000D03*
X188266000Y-125686000D03*
X187766000Y-125686000D03*
X187266000Y-125686000D03*
X186766000Y-125686000D03*
D14*
X185801000Y-126651000D03*
X185801000Y-127151000D03*
X185801000Y-127651000D03*
X185801000Y-128151000D03*
X185801000Y-128651000D03*
D15*
X186766000Y-129616000D03*
X187266000Y-129616000D03*
X187766000Y-129616000D03*
X188266000Y-129616000D03*
X188766000Y-129616000D03*
D13*
X188607000Y-124333000D03*
X190107000Y-124333000D03*
D16*
X191455000Y-126903000D03*
X193355000Y-126903000D03*
X191455000Y-126253000D03*
X193355000Y-126253000D03*
X193355000Y-127553000D03*
X191455000Y-127553000D03*
X191455000Y-125603000D03*
X193355000Y-125603000D03*
D18*
X191262000Y-130151000D03*
X191262000Y-128651000D03*
D17*
X192621000Y-129794000D03*
X194221000Y-129794000D03*
X192621000Y-140462000D03*
X194221000Y-140462000D03*
D13*
X191782000Y-135001000D03*
X193282000Y-135001000D03*
D18*
X191262000Y-140819000D03*
X191262000Y-139319000D03*
D16*
X191455000Y-137571000D03*
X193355000Y-137571000D03*
X191455000Y-136921000D03*
X193355000Y-136921000D03*
X193355000Y-138221000D03*
X191455000Y-138221000D03*
X191455000Y-136271000D03*
X193355000Y-136271000D03*
D13*
X185547000Y-135000999D03*
X187047000Y-135000999D03*
D14*
X189731000Y-139319000D03*
X189731000Y-138819000D03*
X189731000Y-138319000D03*
X189731000Y-137819000D03*
X189731000Y-137319000D03*
D15*
X188766000Y-136354000D03*
X188266000Y-136354000D03*
X187766000Y-136354000D03*
X187266000Y-136354000D03*
X186766000Y-136354000D03*
D14*
X185801000Y-137319000D03*
X185801000Y-137819000D03*
X185801000Y-138319000D03*
X185801000Y-138819000D03*
X185801000Y-139319000D03*
D15*
X186766000Y-140284000D03*
X187266000Y-140284000D03*
X187766000Y-140284000D03*
X188266000Y-140284000D03*
X188766000Y-140284000D03*
D13*
X188607000Y-135001000D03*
X190107000Y-135001000D03*
D12*
X181737000Y-137795000D03*
D19*
X184150000Y-136090000D03*
X184150000Y-134590000D03*
X184150000Y-125422000D03*
X184150000Y-123922000D03*
D12*
X181737000Y-127127000D03*
D13*
X191782000Y-124333000D03*
X193282000Y-124333000D03*
D12*
X159639000Y-63119000D03*
D16*
X169357000Y-62895000D03*
X171257000Y-62895000D03*
X169357000Y-62245000D03*
X171257000Y-62245000D03*
X171257000Y-63545000D03*
X169357000Y-63545000D03*
X169357000Y-61595000D03*
X171257000Y-61595000D03*
D13*
X169684000Y-60325000D03*
X171184000Y-60325000D03*
D17*
X170523000Y-65786000D03*
X172123000Y-65786000D03*
D18*
X169164000Y-66143000D03*
X169164000Y-64643000D03*
D19*
X162052000Y-61414000D03*
X162052000Y-59914000D03*
D13*
X163449000Y-60324999D03*
X164949000Y-60324999D03*
D14*
X167633000Y-64643000D03*
X167633000Y-64143000D03*
X167633000Y-63643000D03*
X167633000Y-63143000D03*
X167633000Y-62643000D03*
D15*
X166668000Y-61678000D03*
X166168000Y-61678000D03*
X165668000Y-61678000D03*
X165168000Y-61678000D03*
X164668000Y-61678000D03*
D14*
X163703000Y-62643000D03*
X163703000Y-63143000D03*
X163703000Y-63643000D03*
X163703000Y-64143000D03*
X163703000Y-64643000D03*
D15*
X164668000Y-65608000D03*
X165168000Y-65608000D03*
X165668000Y-65608000D03*
X166168000Y-65608000D03*
X166668000Y-65608000D03*
D13*
X166509000Y-60325000D03*
X168009000Y-60325000D03*
D12*
X159639000Y-84455000D03*
D13*
X169684000Y-81661000D03*
X171184000Y-81661000D03*
D17*
X170523000Y-87122000D03*
X172123000Y-87122000D03*
D18*
X169164000Y-87479000D03*
X169164000Y-85979000D03*
D16*
X169357000Y-84231000D03*
X171257000Y-84231000D03*
X169357000Y-83581000D03*
X171257000Y-83581000D03*
X171257000Y-84881000D03*
X169357000Y-84881000D03*
X169357000Y-82931000D03*
X171257000Y-82931000D03*
D14*
X167633000Y-85979000D03*
X167633000Y-85479000D03*
X167633000Y-84979000D03*
X167633000Y-84479000D03*
X167633000Y-83979000D03*
D15*
X166668000Y-83014000D03*
X166168000Y-83014000D03*
X165668000Y-83014000D03*
X165168000Y-83014000D03*
X164668000Y-83014000D03*
D14*
X163703000Y-83979000D03*
X163703000Y-84479000D03*
X163703000Y-84979000D03*
X163703000Y-85479000D03*
X163703000Y-85979000D03*
D15*
X164668000Y-86944000D03*
X165168000Y-86944000D03*
X165668000Y-86944000D03*
X166168000Y-86944000D03*
X166668000Y-86944000D03*
D19*
X162052000Y-82750000D03*
X162052000Y-81250000D03*
D13*
X163449000Y-81660999D03*
X164949000Y-81660999D03*
X166509000Y-81661000D03*
X168009000Y-81661000D03*
D18*
X169164000Y-76811000D03*
X169164000Y-75311000D03*
D17*
X170523000Y-76454000D03*
X172123000Y-76454000D03*
D12*
X159639000Y-73787000D03*
D16*
X169357000Y-73563000D03*
X171257000Y-73563000D03*
X169357000Y-72913000D03*
X171257000Y-72913000D03*
X171257000Y-74213000D03*
X169357000Y-74213000D03*
X169357000Y-72263000D03*
X171257000Y-72263000D03*
D13*
X169684000Y-70993000D03*
X171184000Y-70993000D03*
D19*
X162052000Y-72082000D03*
X162052000Y-70582000D03*
D13*
X163449000Y-70992999D03*
X164949000Y-70992999D03*
X166509000Y-70993000D03*
X168009000Y-70993000D03*
D14*
X167633000Y-75311000D03*
X167633000Y-74811000D03*
X167633000Y-74311000D03*
X167633000Y-73811000D03*
X167633000Y-73311000D03*
D15*
X166668000Y-72346000D03*
X166168000Y-72346000D03*
X165668000Y-72346000D03*
X165168000Y-72346000D03*
X164668000Y-72346000D03*
D14*
X163703000Y-73311000D03*
X163703000Y-73811000D03*
X163703000Y-74311000D03*
X163703000Y-74811000D03*
X163703000Y-75311000D03*
D15*
X164668000Y-76276000D03*
X165168000Y-76276000D03*
X165668000Y-76276000D03*
X166168000Y-76276000D03*
X166668000Y-76276000D03*
D13*
X169684000Y-124333000D03*
X171184000Y-124333000D03*
D17*
X170523000Y-129794000D03*
X172123000Y-129794000D03*
D16*
X169357000Y-126903000D03*
X171257000Y-126903000D03*
X169357000Y-126253000D03*
X171257000Y-126253000D03*
X171257000Y-127553000D03*
X169357000Y-127553000D03*
X169357000Y-125603000D03*
X171257000Y-125603000D03*
D19*
X162052000Y-125422000D03*
X162052000Y-123922000D03*
D12*
X159639000Y-127127000D03*
D13*
X163449000Y-124332999D03*
X164949000Y-124332999D03*
X166509000Y-124333000D03*
X168009000Y-124333000D03*
D14*
X167633000Y-128651000D03*
X167633000Y-128151000D03*
X167633000Y-127651000D03*
X167633000Y-127151000D03*
X167633000Y-126651000D03*
D15*
X166668000Y-125686000D03*
X166168000Y-125686000D03*
X165668000Y-125686000D03*
X165168000Y-125686000D03*
X164668000Y-125686000D03*
D14*
X163703000Y-126651000D03*
X163703000Y-127151000D03*
X163703000Y-127651000D03*
X163703000Y-128151000D03*
X163703000Y-128651000D03*
D15*
X164668000Y-129616000D03*
X165168000Y-129616000D03*
X165668000Y-129616000D03*
X166168000Y-129616000D03*
X166668000Y-129616000D03*
D18*
X169164000Y-130151000D03*
X169164000Y-128651000D03*
D19*
X162052000Y-114754000D03*
X162052000Y-113254000D03*
D12*
X159639000Y-116459000D03*
D14*
X167633000Y-117983000D03*
X167633000Y-117483000D03*
X167633000Y-116983000D03*
X167633000Y-116483000D03*
X167633000Y-115983000D03*
D15*
X166668000Y-115018000D03*
X166168000Y-115018000D03*
X165668000Y-115018000D03*
X165168000Y-115018000D03*
X164668000Y-115018000D03*
D14*
X163703000Y-115983000D03*
X163703000Y-116483000D03*
X163703000Y-116983000D03*
X163703000Y-117483000D03*
X163703000Y-117983000D03*
D15*
X164668000Y-118948000D03*
X165168000Y-118948000D03*
X165668000Y-118948000D03*
X166168000Y-118948000D03*
X166668000Y-118948000D03*
D13*
X163449000Y-113664999D03*
X164949000Y-113664999D03*
X166509000Y-113665000D03*
X168009000Y-113665000D03*
X169684000Y-113665000D03*
X171184000Y-113665000D03*
D16*
X169357000Y-116235000D03*
X171257000Y-116235000D03*
X169357000Y-115585000D03*
X171257000Y-115585000D03*
X171257000Y-116885000D03*
X169357000Y-116885000D03*
X169357000Y-114935000D03*
X171257000Y-114935000D03*
D17*
X170523000Y-119126000D03*
X172123000Y-119126000D03*
D18*
X169164000Y-119483000D03*
X169164000Y-117983000D03*
X169164000Y-140819000D03*
X169164000Y-139319000D03*
D17*
X170523000Y-140462000D03*
X172123000Y-140462000D03*
D12*
X159639000Y-137795000D03*
D13*
X166509000Y-135001000D03*
X168009000Y-135001000D03*
D14*
X167633000Y-139319000D03*
X167633000Y-138819000D03*
X167633000Y-138319000D03*
X167633000Y-137819000D03*
X167633000Y-137319000D03*
D15*
X166668000Y-136354000D03*
X166168000Y-136354000D03*
X165668000Y-136354000D03*
X165168000Y-136354000D03*
X164668000Y-136354000D03*
D14*
X163703000Y-137319000D03*
X163703000Y-137819000D03*
X163703000Y-138319000D03*
X163703000Y-138819000D03*
X163703000Y-139319000D03*
D15*
X164668000Y-140284000D03*
X165168000Y-140284000D03*
X165668000Y-140284000D03*
X166168000Y-140284000D03*
X166668000Y-140284000D03*
D19*
X162052000Y-136090000D03*
X162052000Y-134590000D03*
D13*
X163449000Y-135000999D03*
X164949000Y-135000999D03*
D16*
X169357000Y-137571000D03*
X171257000Y-137571000D03*
X169357000Y-136921000D03*
X171257000Y-136921000D03*
X171257000Y-138221000D03*
X169357000Y-138221000D03*
X169357000Y-136271000D03*
X171257000Y-136271000D03*
D13*
X169684000Y-135001000D03*
X171184000Y-135001000D03*
D18*
X169164000Y-98147000D03*
X169164000Y-96647000D03*
D17*
X170523000Y-97790000D03*
X172123000Y-97790000D03*
D16*
X169357000Y-94899000D03*
X171257000Y-94899000D03*
X169357000Y-94249000D03*
X171257000Y-94249000D03*
X171257000Y-95549000D03*
X169357000Y-95549000D03*
X169357000Y-93599000D03*
X171257000Y-93599000D03*
D13*
X169684000Y-102997000D03*
X171184000Y-102997000D03*
D17*
X170523000Y-108458000D03*
X172123000Y-108458000D03*
D16*
X169357000Y-105567000D03*
X171257000Y-105567000D03*
X169357000Y-104917000D03*
X171257000Y-104917000D03*
X171257000Y-106217000D03*
X169357000Y-106217000D03*
X169357000Y-104267000D03*
X171257000Y-104267000D03*
D13*
X163449000Y-92328999D03*
X164949000Y-92328999D03*
X169684000Y-92329000D03*
X171184000Y-92329000D03*
X166509000Y-92329000D03*
X168009000Y-92329000D03*
D14*
X167633000Y-96647000D03*
X167633000Y-96147000D03*
X167633000Y-95647000D03*
X167633000Y-95147000D03*
X167633000Y-94647000D03*
D15*
X166668000Y-93682000D03*
X166168000Y-93682000D03*
X165668000Y-93682000D03*
X165168000Y-93682000D03*
X164668000Y-93682000D03*
D14*
X163703000Y-94647000D03*
X163703000Y-95147000D03*
X163703000Y-95647000D03*
X163703000Y-96147000D03*
X163703000Y-96647000D03*
D15*
X164668000Y-97612000D03*
X165168000Y-97612000D03*
X165668000Y-97612000D03*
X166168000Y-97612000D03*
X166668000Y-97612000D03*
D13*
X166509000Y-102997000D03*
X168009000Y-102997000D03*
D18*
X169164000Y-108815000D03*
X169164000Y-107315000D03*
D14*
X167633000Y-107315000D03*
X167633000Y-106815000D03*
X167633000Y-106315000D03*
X167633000Y-105815000D03*
X167633000Y-105315000D03*
D15*
X166668000Y-104350000D03*
X166168000Y-104350000D03*
X165668000Y-104350000D03*
X165168000Y-104350000D03*
X164668000Y-104350000D03*
D14*
X163703000Y-105315000D03*
X163703000Y-105815000D03*
X163703000Y-106315000D03*
X163703000Y-106815000D03*
X163703000Y-107315000D03*
D15*
X164668000Y-108280000D03*
X165168000Y-108280000D03*
X165668000Y-108280000D03*
X166168000Y-108280000D03*
X166668000Y-108280000D03*
D13*
X163449000Y-102996999D03*
X164949000Y-102996999D03*
D19*
X162052000Y-104086000D03*
X162052000Y-102586000D03*
D12*
X159639000Y-105791000D03*
D19*
X162052000Y-93418000D03*
X162052000Y-91918000D03*
D12*
X159639000Y-95123000D03*
D13*
X144411000Y-60325000D03*
X145911000Y-60325000D03*
X147586000Y-60325000D03*
X149086000Y-60325000D03*
D14*
X145535000Y-64643000D03*
X145535000Y-64143000D03*
X145535000Y-63643000D03*
X145535000Y-63143000D03*
X145535000Y-62643000D03*
D15*
X144570000Y-61678000D03*
X144070000Y-61678000D03*
X143570000Y-61678000D03*
X143070000Y-61678000D03*
X142570000Y-61678000D03*
D14*
X141605000Y-62643000D03*
X141605000Y-63143000D03*
X141605000Y-63643000D03*
X141605000Y-64143000D03*
X141605000Y-64643000D03*
D15*
X142570000Y-65608000D03*
X143070000Y-65608000D03*
X143570000Y-65608000D03*
X144070000Y-65608000D03*
X144570000Y-65608000D03*
D13*
X141351000Y-60324999D03*
X142851000Y-60324999D03*
D17*
X148425000Y-65786000D03*
X150025000Y-65786000D03*
D16*
X147259000Y-62895000D03*
X149159000Y-62895000D03*
X147259000Y-62245000D03*
X149159000Y-62245000D03*
X149159000Y-63545000D03*
X147259000Y-63545000D03*
X147259000Y-61595000D03*
X149159000Y-61595000D03*
D18*
X147066000Y-66143000D03*
X147066000Y-64643000D03*
D19*
X139954000Y-61414000D03*
X139954000Y-59914000D03*
D12*
X137541000Y-63119000D03*
D16*
X147259000Y-73563000D03*
X149159000Y-73563000D03*
X147259000Y-72913000D03*
X149159000Y-72913000D03*
X149159000Y-74213000D03*
X147259000Y-74213000D03*
X147259000Y-72263000D03*
X149159000Y-72263000D03*
D13*
X147586000Y-70993000D03*
X149086000Y-70993000D03*
D18*
X147066000Y-76811000D03*
X147066000Y-75311000D03*
D17*
X148425000Y-76454000D03*
X150025000Y-76454000D03*
D14*
X145535000Y-75311000D03*
X145535000Y-74811000D03*
X145535000Y-74311000D03*
X145535000Y-73811000D03*
X145535000Y-73311000D03*
D15*
X144570000Y-72346000D03*
X144070000Y-72346000D03*
X143570000Y-72346000D03*
X143070000Y-72346000D03*
X142570000Y-72346000D03*
D14*
X141605000Y-73311000D03*
X141605000Y-73811000D03*
X141605000Y-74311000D03*
X141605000Y-74811000D03*
X141605000Y-75311000D03*
D15*
X142570000Y-76276000D03*
X143070000Y-76276000D03*
X143570000Y-76276000D03*
X144070000Y-76276000D03*
X144570000Y-76276000D03*
D13*
X144411000Y-70993000D03*
X145911000Y-70993000D03*
D19*
X139954000Y-72082000D03*
X139954000Y-70582000D03*
D12*
X137541000Y-73787000D03*
D13*
X141351000Y-70992999D03*
X142851000Y-70992999D03*
D12*
X137541000Y-84455000D03*
D13*
X141351000Y-81660999D03*
X142851000Y-81660999D03*
D19*
X139954000Y-82750000D03*
X139954000Y-81250000D03*
D14*
X145535000Y-85979000D03*
X145535000Y-85479000D03*
X145535000Y-84979000D03*
X145535000Y-84479000D03*
X145535000Y-83979000D03*
D15*
X144570000Y-83014000D03*
X144070000Y-83014000D03*
X143570000Y-83014000D03*
X143070000Y-83014000D03*
X142570000Y-83014000D03*
D14*
X141605000Y-83979000D03*
X141605000Y-84479000D03*
X141605000Y-84979000D03*
X141605000Y-85479000D03*
X141605000Y-85979000D03*
D15*
X142570000Y-86944000D03*
X143070000Y-86944000D03*
X143570000Y-86944000D03*
X144070000Y-86944000D03*
X144570000Y-86944000D03*
D13*
X144411000Y-81661000D03*
X145911000Y-81661000D03*
D18*
X147066000Y-87479000D03*
X147066000Y-85979000D03*
D17*
X148425000Y-87122000D03*
X150025000Y-87122000D03*
D16*
X147259000Y-84231000D03*
X149159000Y-84231000D03*
X147259000Y-83581000D03*
X149159000Y-83581000D03*
X149159000Y-84881000D03*
X147259000Y-84881000D03*
X147259000Y-82931000D03*
X149159000Y-82931000D03*
D13*
X147586000Y-81661000D03*
X149086000Y-81661000D03*
X144411000Y-92329000D03*
X145911000Y-92329000D03*
X141351000Y-92328999D03*
X142851000Y-92328999D03*
D12*
X137541000Y-95123000D03*
D19*
X139954000Y-93418000D03*
X139954000Y-91918000D03*
D14*
X145535000Y-96647000D03*
X145535000Y-96147000D03*
X145535000Y-95647000D03*
X145535000Y-95147000D03*
X145535000Y-94647000D03*
D15*
X144570000Y-93682000D03*
X144070000Y-93682000D03*
X143570000Y-93682000D03*
X143070000Y-93682000D03*
X142570000Y-93682000D03*
D14*
X141605000Y-94647000D03*
X141605000Y-95147000D03*
X141605000Y-95647000D03*
X141605000Y-96147000D03*
X141605000Y-96647000D03*
D15*
X142570000Y-97612000D03*
X143070000Y-97612000D03*
X143570000Y-97612000D03*
X144070000Y-97612000D03*
X144570000Y-97612000D03*
D17*
X148425000Y-97790000D03*
X150025000Y-97790000D03*
D18*
X147066000Y-98147000D03*
X147066000Y-96647000D03*
D16*
X147259000Y-94899000D03*
X149159000Y-94899000D03*
X147259000Y-94249000D03*
X149159000Y-94249000D03*
X149159000Y-95549000D03*
X147259000Y-95549000D03*
X147259000Y-93599000D03*
X149159000Y-93599000D03*
D13*
X147586000Y-92329000D03*
X149086000Y-92329000D03*
X144411000Y-102997000D03*
X145911000Y-102997000D03*
D14*
X145535000Y-107315000D03*
X145535000Y-106815000D03*
X145535000Y-106315000D03*
X145535000Y-105815000D03*
X145535000Y-105315000D03*
D15*
X144570000Y-104350000D03*
X144070000Y-104350000D03*
X143570000Y-104350000D03*
X143070000Y-104350000D03*
X142570000Y-104350000D03*
D14*
X141605000Y-105315000D03*
X141605000Y-105815000D03*
X141605000Y-106315000D03*
X141605000Y-106815000D03*
X141605000Y-107315000D03*
D15*
X142570000Y-108280000D03*
X143070000Y-108280000D03*
X143570000Y-108280000D03*
X144070000Y-108280000D03*
X144570000Y-108280000D03*
D13*
X141351000Y-102996999D03*
X142851000Y-102996999D03*
X144411000Y-113665000D03*
X145911000Y-113665000D03*
X141351000Y-113664999D03*
X142851000Y-113664999D03*
D12*
X137541000Y-116459000D03*
D19*
X139954000Y-114754000D03*
X139954000Y-113254000D03*
D14*
X145535000Y-117983000D03*
X145535000Y-117483000D03*
X145535000Y-116983000D03*
X145535000Y-116483000D03*
X145535000Y-115983000D03*
D15*
X144570000Y-115018000D03*
X144070000Y-115018000D03*
X143570000Y-115018000D03*
X143070000Y-115018000D03*
X142570000Y-115018000D03*
D14*
X141605000Y-115983000D03*
X141605000Y-116483000D03*
X141605000Y-116983000D03*
X141605000Y-117483000D03*
X141605000Y-117983000D03*
D15*
X142570000Y-118948000D03*
X143070000Y-118948000D03*
X143570000Y-118948000D03*
X144070000Y-118948000D03*
X144570000Y-118948000D03*
D13*
X147586000Y-102997000D03*
X149086000Y-102997000D03*
D17*
X148425000Y-108458000D03*
X150025000Y-108458000D03*
D16*
X147259000Y-105567000D03*
X149159000Y-105567000D03*
X147259000Y-104917000D03*
X149159000Y-104917000D03*
X149159000Y-106217000D03*
X147259000Y-106217000D03*
X147259000Y-104267000D03*
X149159000Y-104267000D03*
D18*
X147066000Y-108815000D03*
X147066000Y-107315000D03*
D19*
X139954000Y-104086000D03*
X139954000Y-102586000D03*
D12*
X137541000Y-105791000D03*
D17*
X148425000Y-119126000D03*
X150025000Y-119126000D03*
D18*
X147066000Y-119483000D03*
X147066000Y-117983000D03*
D16*
X147259000Y-116235000D03*
X149159000Y-116235000D03*
X147259000Y-115585000D03*
X149159000Y-115585000D03*
X149159000Y-116885000D03*
X147259000Y-116885000D03*
X147259000Y-114935000D03*
X149159000Y-114935000D03*
D13*
X147586000Y-113665000D03*
X149086000Y-113665000D03*
D18*
X147066000Y-130151000D03*
X147066000Y-128651000D03*
D17*
X148425000Y-129794000D03*
X150025000Y-129794000D03*
D13*
X144411000Y-124333000D03*
X145911000Y-124333000D03*
D14*
X145535000Y-128651000D03*
X145535000Y-128151000D03*
X145535000Y-127651000D03*
X145535000Y-127151000D03*
X145535000Y-126651000D03*
D15*
X144570000Y-125686000D03*
X144070000Y-125686000D03*
X143570000Y-125686000D03*
X143070000Y-125686000D03*
X142570000Y-125686000D03*
D14*
X141605000Y-126651000D03*
X141605000Y-127151000D03*
X141605000Y-127651000D03*
X141605000Y-128151000D03*
X141605000Y-128651000D03*
D15*
X142570000Y-129616000D03*
X143070000Y-129616000D03*
X143570000Y-129616000D03*
X144070000Y-129616000D03*
X144570000Y-129616000D03*
D13*
X147586000Y-124333000D03*
X149086000Y-124333000D03*
X141351000Y-124332999D03*
X142851000Y-124332999D03*
D16*
X147259000Y-126903000D03*
X149159000Y-126903000D03*
X147259000Y-126253000D03*
X149159000Y-126253000D03*
X149159000Y-127553000D03*
X147259000Y-127553000D03*
X147259000Y-125603000D03*
X149159000Y-125603000D03*
D12*
X137541000Y-127127000D03*
D19*
X139954000Y-125422000D03*
X139954000Y-123922000D03*
D14*
X145535000Y-139319000D03*
X145535000Y-138819000D03*
X145535000Y-138319000D03*
X145535000Y-137819000D03*
X145535000Y-137319000D03*
D15*
X144570000Y-136354000D03*
X144070000Y-136354000D03*
X143570000Y-136354000D03*
X143070000Y-136354000D03*
X142570000Y-136354000D03*
D14*
X141605000Y-137319000D03*
X141605000Y-137819000D03*
X141605000Y-138319000D03*
X141605000Y-138819000D03*
X141605000Y-139319000D03*
D15*
X142570000Y-140284000D03*
X143070000Y-140284000D03*
X143570000Y-140284000D03*
X144070000Y-140284000D03*
X144570000Y-140284000D03*
D16*
X147259000Y-137571000D03*
X149159000Y-137571000D03*
X147259000Y-136921000D03*
X149159000Y-136921000D03*
X149159000Y-138221000D03*
X147259000Y-138221000D03*
X147259000Y-136271000D03*
X149159000Y-136271000D03*
D13*
X144411000Y-135001000D03*
X145911000Y-135001000D03*
X141351000Y-135000999D03*
X142851000Y-135000999D03*
D12*
X137541000Y-137795000D03*
D17*
X148425000Y-140462000D03*
X150025000Y-140462000D03*
D13*
X147586000Y-135001000D03*
X149086000Y-135001000D03*
D18*
X147066000Y-140819000D03*
X147066000Y-139319000D03*
D19*
X139954000Y-136090000D03*
X139954000Y-134590000D03*
D11*
X136017000Y-54610000D03*
M02*
