G04 #@! TF.FileFunction,Profile,NP*
%FSLAX46Y46*%
G04 Gerber Fmt 4.6, Leading zero omitted, Abs format (unit mm)*
G04 Created by KiCad (PCBNEW 4.0.5+dfsg1-4) date Sun Jun 17 20:11:44 2018*
%MOMM*%
%LPD*%
G01*
G04 APERTURE LIST*
%ADD10C,0.100000*%
%ADD11C,0.150000*%
G04 APERTURE END LIST*
D10*
D11*
X200406000Y-148209000D02*
X130302000Y-148209000D01*
X200406000Y-52705000D02*
X200406000Y-148209000D01*
X130302000Y-52705000D02*
X200406000Y-52705000D01*
X130302000Y-148209000D02*
X130302000Y-52705000D01*
X134112000Y-56515000D02*
X134112000Y-144399000D01*
X196596000Y-144399000D02*
X196596000Y-56515000D01*
X189357000Y-144399000D02*
X196596000Y-144399000D01*
X195199000Y-141859000D02*
X189357000Y-141859000D01*
X195199000Y-141859000D02*
X195199000Y-133731000D01*
X195199000Y-123063000D02*
X189357000Y-123063000D01*
X195199000Y-131191000D02*
X189357000Y-131191000D01*
X195199000Y-131191000D02*
X195199000Y-123063000D01*
X195199000Y-120523000D02*
X189357000Y-120523000D01*
X195199000Y-133731000D02*
X189357000Y-133731000D01*
X195199000Y-120523000D02*
X195199000Y-112395000D01*
X186817000Y-120523000D02*
X182372000Y-120523000D01*
X182372000Y-112395000D02*
G75*
G03X179578000Y-115189000I0J-2794000D01*
G01*
X179578000Y-117729000D02*
X179578000Y-115189000D01*
X186817000Y-123063000D02*
X182372000Y-123063000D01*
X179577999Y-117729001D02*
G75*
G03X182372000Y-120523000I2794000J1D01*
G01*
X182372000Y-123063000D02*
G75*
G03X179578000Y-125857000I0J-2794000D01*
G01*
X179578000Y-128397000D02*
X179578000Y-125857000D01*
X186817000Y-133731000D02*
X182372000Y-133731000D01*
X179577999Y-128397001D02*
G75*
G03X182372000Y-131191000I2794000J1D01*
G01*
X186817000Y-131191000D02*
X182372000Y-131191000D01*
X182372000Y-133731000D02*
G75*
G03X179578000Y-136525000I0J-2794000D01*
G01*
X179577999Y-139065001D02*
G75*
G03X182372000Y-141859000I2794000J1D01*
G01*
X186817000Y-144399000D02*
X178308000Y-144399000D01*
X186817000Y-141859000D02*
X182372000Y-141859000D01*
X179578000Y-139065000D02*
X179578000Y-136525000D01*
X186817000Y-69723000D02*
X182372000Y-69723000D01*
X179577999Y-75057001D02*
G75*
G03X182372000Y-77851000I2794000J1D01*
G01*
X179578000Y-75057000D02*
X179578000Y-72517000D01*
X186817000Y-80391000D02*
X182372000Y-80391000D01*
X186817000Y-77851000D02*
X182372000Y-77851000D01*
X182372000Y-69723000D02*
G75*
G03X179578000Y-72517000I0J-2794000D01*
G01*
X195199000Y-77851000D02*
X195199000Y-69723000D01*
X195199000Y-77851000D02*
X189357000Y-77851000D01*
X195199000Y-80391000D02*
X189357000Y-80391000D01*
X195199000Y-69723000D02*
X189357000Y-69723000D01*
X186817000Y-56515000D02*
X178308000Y-56515000D01*
X186817000Y-67183000D02*
X182372000Y-67183000D01*
X179578000Y-64389000D02*
X179578000Y-61849000D01*
X179577999Y-64389001D02*
G75*
G03X182372000Y-67183000I2794000J1D01*
G01*
X186817000Y-59055000D02*
X182372000Y-59055000D01*
X182372000Y-59055000D02*
G75*
G03X179578000Y-61849000I0J-2794000D01*
G01*
X195199000Y-59055000D02*
X189357000Y-59055000D01*
X195199000Y-67183000D02*
X189357000Y-67183000D01*
X195199000Y-67183000D02*
X195199000Y-59055000D01*
X195199000Y-88519000D02*
X195199000Y-80391000D01*
X195199000Y-88519000D02*
X189357000Y-88519000D01*
X195199000Y-91059000D02*
X189357000Y-91059000D01*
X196596000Y-56515000D02*
X189357000Y-56515000D01*
X195199000Y-109855000D02*
X189357000Y-109855000D01*
X195199000Y-112395000D02*
X189357000Y-112395000D01*
X195199000Y-109855000D02*
X195199000Y-101727000D01*
X195199000Y-99187000D02*
X195199000Y-91059000D01*
X195199000Y-99187000D02*
X189357000Y-99187000D01*
X195199000Y-101727000D02*
X189357000Y-101727000D01*
X179577999Y-96393001D02*
G75*
G03X182372000Y-99187000I2794000J1D01*
G01*
X186817000Y-99187000D02*
X182372000Y-99187000D01*
X179578000Y-96393000D02*
X179578000Y-93853000D01*
X186817000Y-101727000D02*
X182372000Y-101727000D01*
X186817000Y-112395000D02*
X182372000Y-112395000D01*
X186817000Y-109855000D02*
X182372000Y-109855000D01*
X182372000Y-101727000D02*
G75*
G03X179578000Y-104521000I0J-2794000D01*
G01*
X179578000Y-107061000D02*
X179578000Y-104521000D01*
X179577999Y-107061001D02*
G75*
G03X182372000Y-109855000I2794000J1D01*
G01*
X182372000Y-80391000D02*
G75*
G03X179578000Y-83185000I0J-2794000D01*
G01*
X186817000Y-88519000D02*
X182372000Y-88519000D01*
X179578000Y-85725000D02*
X179578000Y-83185000D01*
X182372000Y-91059000D02*
G75*
G03X179578000Y-93853000I0J-2794000D01*
G01*
X186817000Y-91059000D02*
X182372000Y-91059000D01*
X179577999Y-85725001D02*
G75*
G03X182372000Y-88519000I2794000J1D01*
G01*
X164719000Y-144399000D02*
X156210000Y-144399000D01*
X157479999Y-139065001D02*
G75*
G03X160274000Y-141859000I2794000J1D01*
G01*
X157480000Y-139065000D02*
X157480000Y-136525000D01*
X164719000Y-141859000D02*
X160274000Y-141859000D01*
X160274000Y-133731000D02*
G75*
G03X157480000Y-136525000I0J-2794000D01*
G01*
X167259000Y-144399000D02*
X174498000Y-144399000D01*
X173101000Y-141859000D02*
X173101000Y-133731000D01*
X173101000Y-141859000D02*
X167259000Y-141859000D01*
X164719000Y-131191000D02*
X160274000Y-131191000D01*
X157479999Y-128397001D02*
G75*
G03X160274000Y-131191000I2794000J1D01*
G01*
X164719000Y-133731000D02*
X160274000Y-133731000D01*
X160274000Y-123063000D02*
G75*
G03X157480000Y-125857000I0J-2794000D01*
G01*
X157480000Y-128397000D02*
X157480000Y-125857000D01*
X173101000Y-131191000D02*
X173101000Y-123063000D01*
X173101000Y-133731000D02*
X167259000Y-133731000D01*
X173101000Y-131191000D02*
X167259000Y-131191000D01*
X157480000Y-75057000D02*
X157480000Y-72517000D01*
X157479999Y-75057001D02*
G75*
G03X160274000Y-77851000I2794000J1D01*
G01*
X164719000Y-69723000D02*
X160274000Y-69723000D01*
X160274000Y-69723000D02*
G75*
G03X157480000Y-72517000I0J-2794000D01*
G01*
X173101000Y-67183000D02*
X167259000Y-67183000D01*
X173101000Y-69723000D02*
X167259000Y-69723000D01*
X173101000Y-77851000D02*
X173101000Y-69723000D01*
X164719000Y-56515000D02*
X156210000Y-56515000D01*
X160274000Y-59055000D02*
G75*
G03X157480000Y-61849000I0J-2794000D01*
G01*
X164719000Y-67183000D02*
X160274000Y-67183000D01*
X157479999Y-64389001D02*
G75*
G03X160274000Y-67183000I2794000J1D01*
G01*
X157480000Y-64389000D02*
X157480000Y-61849000D01*
X164719000Y-59055000D02*
X160274000Y-59055000D01*
X173101000Y-67183000D02*
X173101000Y-59055000D01*
X173101000Y-59055000D02*
X167259000Y-59055000D01*
X164719000Y-101727000D02*
X160274000Y-101727000D01*
X164719000Y-99187000D02*
X160274000Y-99187000D01*
X173101000Y-99187000D02*
X167259000Y-99187000D01*
X157479999Y-96393001D02*
G75*
G03X160274000Y-99187000I2794000J1D01*
G01*
X173101000Y-99187000D02*
X173101000Y-91059000D01*
X160274000Y-91059000D02*
G75*
G03X157480000Y-93853000I0J-2794000D01*
G01*
X157480000Y-96393000D02*
X157480000Y-93853000D01*
X178308000Y-56515000D02*
X178308000Y-144399000D01*
X174498000Y-56515000D02*
X167259000Y-56515000D01*
X174498000Y-144399000D02*
X174498000Y-56515000D01*
X173101000Y-88519000D02*
X173101000Y-80391000D01*
X173101000Y-91059000D02*
X167259000Y-91059000D01*
X173101000Y-88519000D02*
X167259000Y-88519000D01*
X157479999Y-85725001D02*
G75*
G03X160274000Y-88519000I2794000J1D01*
G01*
X157480000Y-85725000D02*
X157480000Y-83185000D01*
X164719000Y-80391000D02*
X160274000Y-80391000D01*
X164719000Y-77851000D02*
X160274000Y-77851000D01*
X160274000Y-80391000D02*
G75*
G03X157480000Y-83185000I0J-2794000D01*
G01*
X164719000Y-91059000D02*
X160274000Y-91059000D01*
X164719000Y-88519000D02*
X160274000Y-88519000D01*
X173101000Y-80391000D02*
X167259000Y-80391000D01*
X173101000Y-77851000D02*
X167259000Y-77851000D01*
X157479999Y-107061001D02*
G75*
G03X160274000Y-109855000I2794000J1D01*
G01*
X160274000Y-101727000D02*
G75*
G03X157480000Y-104521000I0J-2794000D01*
G01*
X164719000Y-109855000D02*
X160274000Y-109855000D01*
X157480000Y-107061000D02*
X157480000Y-104521000D01*
X173101000Y-120523000D02*
X173101000Y-112395000D01*
X173101000Y-112395000D02*
X167259000Y-112395000D01*
X164719000Y-112395000D02*
X160274000Y-112395000D01*
X164719000Y-120523000D02*
X160274000Y-120523000D01*
X164719000Y-123063000D02*
X160274000Y-123063000D01*
X157480000Y-117729000D02*
X157480000Y-115189000D01*
X157479999Y-117729001D02*
G75*
G03X160274000Y-120523000I2794000J1D01*
G01*
X160274000Y-112395000D02*
G75*
G03X157480000Y-115189000I0J-2794000D01*
G01*
X173101000Y-109855000D02*
X173101000Y-101727000D01*
X173101000Y-101727000D02*
X167259000Y-101727000D01*
X173101000Y-109855000D02*
X167259000Y-109855000D01*
X173101000Y-120523000D02*
X167259000Y-120523000D01*
X173101000Y-123063000D02*
X167259000Y-123063000D01*
X142621000Y-56515000D02*
X134112000Y-56515000D01*
X142621000Y-144399000D02*
X134112000Y-144399000D01*
X156210000Y-56515000D02*
X156210000Y-144399000D01*
X152400000Y-56515000D02*
X145161000Y-56515000D01*
X152400000Y-144399000D02*
X152400000Y-56515000D01*
X145161000Y-144399000D02*
X152400000Y-144399000D01*
X151003000Y-67183000D02*
X145161000Y-67183000D01*
X151003000Y-67183000D02*
X151003000Y-59055000D01*
X151003000Y-59055000D02*
X145161000Y-59055000D01*
X142621000Y-69723000D02*
X138176000Y-69723000D01*
X142621000Y-67183000D02*
X138176000Y-67183000D01*
X138176000Y-69723000D02*
G75*
G03X135382000Y-72517000I0J-2794000D01*
G01*
X142621000Y-77851000D02*
X138176000Y-77851000D01*
X135381999Y-75057001D02*
G75*
G03X138176000Y-77851000I2794000J1D01*
G01*
X135382000Y-75057000D02*
X135382000Y-72517000D01*
X151003000Y-77851000D02*
X151003000Y-69723000D01*
X151003000Y-77851000D02*
X145161000Y-77851000D01*
X151003000Y-69723000D02*
X145161000Y-69723000D01*
X142621000Y-59055000D02*
X138176000Y-59055000D01*
X135381999Y-64389001D02*
G75*
G03X138176000Y-67183000I2794000J1D01*
G01*
X138176000Y-59055000D02*
G75*
G03X135382000Y-61849000I0J-2794000D01*
G01*
X135382000Y-64389000D02*
X135382000Y-61849000D01*
X142621000Y-91059000D02*
X138176000Y-91059000D01*
X135381999Y-96393001D02*
G75*
G03X138176000Y-99187000I2794000J1D01*
G01*
X142621000Y-99187000D02*
X138176000Y-99187000D01*
X138176000Y-91059000D02*
G75*
G03X135382000Y-93853000I0J-2794000D01*
G01*
X135382000Y-96393000D02*
X135382000Y-93853000D01*
X151003000Y-88519000D02*
X145161000Y-88519000D01*
X151003000Y-88519000D02*
X151003000Y-80391000D01*
X151003000Y-80391000D02*
X145161000Y-80391000D01*
X151003000Y-91059000D02*
X145161000Y-91059000D01*
X151003000Y-99187000D02*
X145161000Y-99187000D01*
X151003000Y-99187000D02*
X151003000Y-91059000D01*
X142621000Y-88519000D02*
X138176000Y-88519000D01*
X142621000Y-80391000D02*
X138176000Y-80391000D01*
X135382000Y-85725000D02*
X135382000Y-83185000D01*
X138176000Y-80391000D02*
G75*
G03X135382000Y-83185000I0J-2794000D01*
G01*
X135381999Y-85725001D02*
G75*
G03X138176000Y-88519000I2794000J1D01*
G01*
X151003000Y-109855000D02*
X151003000Y-101727000D01*
X151003000Y-109855000D02*
X145161000Y-109855000D01*
X151003000Y-112395000D02*
X145161000Y-112395000D01*
X135382000Y-117729000D02*
X135382000Y-115189000D01*
X138176000Y-112395000D02*
G75*
G03X135382000Y-115189000I0J-2794000D01*
G01*
X151003000Y-120523000D02*
X145161000Y-120523000D01*
X142621000Y-120523000D02*
X138176000Y-120523000D01*
X135381999Y-117729001D02*
G75*
G03X138176000Y-120523000I2794000J1D01*
G01*
X151003000Y-120523000D02*
X151003000Y-112395000D01*
X151003000Y-101727000D02*
X145161000Y-101727000D01*
X142621000Y-112395000D02*
X138176000Y-112395000D01*
X138176000Y-101727000D02*
G75*
G03X135382000Y-104521000I0J-2794000D01*
G01*
X135381999Y-107061001D02*
G75*
G03X138176000Y-109855000I2794000J1D01*
G01*
X142621000Y-109855000D02*
X138176000Y-109855000D01*
X135382000Y-107061000D02*
X135382000Y-104521000D01*
X142621000Y-101727000D02*
X138176000Y-101727000D01*
X151003000Y-131191000D02*
X145161000Y-131191000D01*
X151003000Y-131191000D02*
X151003000Y-123063000D01*
X151003000Y-123063000D02*
X145161000Y-123063000D01*
X135381999Y-128397001D02*
G75*
G03X138176000Y-131191000I2794000J1D01*
G01*
X142621000Y-131191000D02*
X138176000Y-131191000D01*
X138176000Y-123063000D02*
G75*
G03X135382000Y-125857000I0J-2794000D01*
G01*
X135382000Y-128397000D02*
X135382000Y-125857000D01*
X142621000Y-123063000D02*
X138176000Y-123063000D01*
X142621000Y-141859000D02*
X138176000Y-141859000D01*
X151003000Y-141859000D02*
X145161000Y-141859000D01*
X142621000Y-133731000D02*
X138176000Y-133731000D01*
X135382000Y-139065000D02*
X135382000Y-136525000D01*
X138176000Y-133731000D02*
G75*
G03X135382000Y-136525000I0J-2794000D01*
G01*
X135381999Y-139065001D02*
G75*
G03X138176000Y-141859000I2794000J1D01*
G01*
X151003000Y-133731000D02*
X145161000Y-133731000D01*
X151003000Y-141859000D02*
X151003000Y-133731000D01*
X189357000Y-67183000D02*
X189357000Y-69723000D01*
X186817000Y-69723000D02*
X186817000Y-67183000D01*
X189357000Y-56515000D02*
X189357000Y-59055000D01*
X186817000Y-59055000D02*
X186817000Y-56515000D01*
X189357000Y-77851000D02*
X189357000Y-80391000D01*
X186817000Y-80391000D02*
X186817000Y-77851000D01*
X189357000Y-88519000D02*
X189357000Y-91059000D01*
X186817000Y-91059000D02*
X186817000Y-88519000D01*
X189357000Y-109855000D02*
X189357000Y-112395000D01*
X186817000Y-112395000D02*
X186817000Y-109855000D01*
X189357000Y-99186999D02*
X189357000Y-101726999D01*
X186817000Y-101726999D02*
X186817000Y-99186999D01*
X189357000Y-120523000D02*
X189357000Y-123063000D01*
X186817000Y-123063000D02*
X186817000Y-120523000D01*
X189357000Y-131191000D02*
X189357000Y-133731000D01*
X186817000Y-133731000D02*
X186817000Y-131191000D01*
X189357000Y-141858999D02*
X189357000Y-144398999D01*
X186817000Y-144398999D02*
X186817000Y-141858999D01*
X167259000Y-56515000D02*
X167259000Y-59055000D01*
X164719000Y-59055000D02*
X164719000Y-56515000D01*
X167259000Y-77851000D02*
X167259000Y-80391000D01*
X164719000Y-80391000D02*
X164719000Y-77851000D01*
X167259000Y-67183000D02*
X167259000Y-69723000D01*
X164719000Y-69723000D02*
X164719000Y-67183000D01*
X167259000Y-120523000D02*
X167259000Y-123063000D01*
X164719000Y-123063000D02*
X164719000Y-120523000D01*
X167259000Y-109855000D02*
X167259000Y-112395000D01*
X164719000Y-112395000D02*
X164719000Y-109855000D01*
X167259000Y-131191000D02*
X167259000Y-133731000D01*
X164719000Y-133731000D02*
X164719000Y-131191000D01*
X167259000Y-141858999D02*
X167259000Y-144398999D01*
X164719000Y-144398999D02*
X164719000Y-141858999D01*
X167259000Y-88519000D02*
X167259000Y-91059000D01*
X164719000Y-91059000D02*
X164719000Y-88519000D01*
X167259000Y-99186999D02*
X167259000Y-101726999D01*
X164719000Y-101726999D02*
X164719000Y-99186999D01*
X145161000Y-56515000D02*
X145161000Y-59055000D01*
X142621000Y-59055000D02*
X142621000Y-56515000D01*
X145161000Y-67183000D02*
X145161000Y-69723000D01*
X142621000Y-69723000D02*
X142621000Y-67183000D01*
X145161000Y-77851000D02*
X145161000Y-80391000D01*
X142621000Y-80391000D02*
X142621000Y-77851000D01*
X145161000Y-88519000D02*
X145161000Y-91059000D01*
X142621000Y-91059000D02*
X142621000Y-88519000D01*
X145161000Y-99186999D02*
X145161000Y-101726999D01*
X142621000Y-101726999D02*
X142621000Y-99186999D01*
X145161000Y-109855000D02*
X145161000Y-112395000D01*
X142621000Y-112395000D02*
X142621000Y-109855000D01*
X145161000Y-120523000D02*
X145161000Y-123063000D01*
X142621000Y-123063000D02*
X142621000Y-120523000D01*
X145161000Y-131191000D02*
X145161000Y-133731000D01*
X142621000Y-133731000D02*
X142621000Y-131191000D01*
X145161000Y-141858999D02*
X145161000Y-144398999D01*
X142621000Y-144398999D02*
X142621000Y-141858999D01*
M02*
