M48
;DRILL file {KiCad 4.0.5+dfsg1-4} date Sun Jun 17 20:11:46 2018
;FORMAT={-:-/ absolute / inch / decimal}
FMAT,2
INCH,TZ
T1C0.016
T2C0.024
%
G90
G05
M72
T1
X5.525Y-2.555
X5.525Y-2.58
X5.525Y-2.975
X5.525Y-3.
X5.525Y-3.395
X5.525Y-3.42
X5.525Y-3.815
X5.525Y-3.84
X5.525Y-4.235
X5.525Y-4.26
X5.525Y-4.655
X5.525Y-4.68
X5.525Y-5.075
X5.525Y-5.1
X5.525Y-5.495
X5.525Y-5.52
X5.55Y-2.58
X5.55Y-3.
X5.55Y-3.42
X5.55Y-3.84
X5.55Y-4.26
X5.55Y-4.68
X5.55Y-5.1
X5.55Y-5.52
X5.62Y-2.535
X5.62Y-2.955
X5.62Y-3.375
X5.62Y-3.795
X5.62Y-4.215
X5.62Y-4.635
X5.62Y-5.055
X5.62Y-5.475
X5.655Y-2.5328
X5.655Y-2.9528
X5.655Y-3.3728
X5.655Y-3.7928
X5.655Y-4.2128
X5.655Y-4.6328
X5.655Y-5.0528
X5.655Y-5.4728
X5.675Y-2.485
X5.675Y-2.905
X5.675Y-3.325
X5.675Y-3.745
X5.675Y-4.165
X5.675Y-4.585
X5.675Y-5.005
X5.675Y-5.425
X5.691Y-2.5338
X5.691Y-2.9538
X5.691Y-3.3738
X5.691Y-3.7938
X5.691Y-4.2138
X5.691Y-4.6338
X5.691Y-5.0538
X5.691Y-5.4738
X5.855Y-2.535
X5.855Y-2.955
X5.855Y-3.375
X5.855Y-3.795
X5.855Y-4.215
X5.855Y-4.635
X5.855Y-5.055
X5.855Y-5.475
X5.895Y-2.395
X5.895Y-2.535
X5.895Y-2.815
X5.895Y-2.955
X5.895Y-3.235
X5.895Y-3.375
X5.895Y-3.655
X5.895Y-3.795
X5.895Y-4.075
X5.895Y-4.215
X5.895Y-4.495
X5.895Y-4.635
X5.895Y-4.915
X5.895Y-5.055
X5.895Y-5.335
X5.895Y-5.475
X5.905Y-2.425
X5.905Y-2.845
X5.905Y-3.265
X5.905Y-3.685
X5.905Y-4.105
X5.905Y-4.525
X5.905Y-4.945
X5.905Y-5.365
X5.92Y-2.395
X5.92Y-2.815
X5.92Y-3.235
X5.92Y-3.655
X5.92Y-4.075
X5.92Y-4.495
X5.92Y-4.915
X5.92Y-5.335
X5.92Y-2.535
X5.92Y-2.955
X5.92Y-3.375
X5.92Y-3.795
X5.92Y-4.215
X5.92Y-4.635
X5.92Y-5.055
X5.92Y-5.475
X6.395Y-2.555
X6.395Y-2.58
X6.395Y-2.975
X6.395Y-3.
X6.395Y-3.395
X6.395Y-3.42
X6.395Y-3.815
X6.395Y-3.84
X6.395Y-4.235
X6.395Y-4.26
X6.395Y-4.655
X6.395Y-4.68
X6.395Y-5.075
X6.395Y-5.1
X6.395Y-5.495
X6.395Y-5.52
X6.42Y-2.58
X6.42Y-3.
X6.42Y-3.42
X6.42Y-3.84
X6.42Y-4.26
X6.42Y-4.68
X6.42Y-5.1
X6.42Y-5.52
X6.49Y-2.535
X6.49Y-2.955
X6.49Y-3.375
X6.49Y-3.795
X6.49Y-4.215
X6.49Y-4.635
X6.49Y-5.055
X6.49Y-5.475
X6.525Y-2.5328
X6.525Y-2.9528
X6.525Y-3.3728
X6.525Y-3.7928
X6.525Y-4.2128
X6.525Y-4.6328
X6.525Y-5.0528
X6.525Y-5.4728
X6.545Y-2.485
X6.545Y-2.905
X6.545Y-3.325
X6.545Y-3.745
X6.545Y-4.165
X6.545Y-4.585
X6.545Y-5.005
X6.545Y-5.425
X6.561Y-2.5338
X6.561Y-2.9538
X6.561Y-3.3738
X6.561Y-3.7938
X6.561Y-4.2138
X6.561Y-4.6338
X6.561Y-5.0538
X6.561Y-5.4738
X6.725Y-2.535
X6.725Y-2.955
X6.725Y-3.375
X6.725Y-3.795
X6.725Y-4.215
X6.725Y-4.635
X6.725Y-5.055
X6.725Y-5.475
X6.765Y-2.395
X6.765Y-2.535
X6.765Y-2.815
X6.765Y-2.955
X6.765Y-3.235
X6.765Y-3.375
X6.765Y-3.655
X6.765Y-3.795
X6.765Y-4.075
X6.765Y-4.215
X6.765Y-4.495
X6.765Y-4.635
X6.765Y-4.915
X6.765Y-5.055
X6.765Y-5.335
X6.765Y-5.475
X6.775Y-2.425
X6.775Y-2.845
X6.775Y-3.265
X6.775Y-3.685
X6.775Y-4.105
X6.775Y-4.525
X6.775Y-4.945
X6.775Y-5.365
X6.79Y-2.395
X6.79Y-2.815
X6.79Y-3.235
X6.79Y-3.655
X6.79Y-4.075
X6.79Y-4.495
X6.79Y-4.915
X6.79Y-5.335
X6.79Y-2.535
X6.79Y-2.955
X6.79Y-3.375
X6.79Y-3.795
X6.79Y-4.215
X6.79Y-4.635
X6.79Y-5.055
X6.79Y-5.475
X7.265Y-2.555
X7.265Y-2.58
X7.265Y-2.975
X7.265Y-3.
X7.265Y-3.395
X7.265Y-3.42
X7.265Y-3.815
X7.265Y-3.84
X7.265Y-4.235
X7.265Y-4.26
X7.265Y-4.655
X7.265Y-4.68
X7.265Y-5.075
X7.265Y-5.1
X7.265Y-5.495
X7.265Y-5.52
X7.29Y-2.58
X7.29Y-3.
X7.29Y-3.42
X7.29Y-3.84
X7.29Y-4.26
X7.29Y-4.68
X7.29Y-5.1
X7.29Y-5.52
X7.36Y-2.535
X7.36Y-2.955
X7.36Y-3.375
X7.36Y-3.795
X7.36Y-4.215
X7.36Y-4.635
X7.36Y-5.055
X7.36Y-5.475
X7.395Y-2.5328
X7.395Y-2.9528
X7.395Y-3.3728
X7.395Y-3.7928
X7.395Y-4.2128
X7.395Y-4.6328
X7.395Y-5.0528
X7.395Y-5.4728
X7.415Y-2.485
X7.415Y-2.905
X7.415Y-3.325
X7.415Y-3.745
X7.415Y-4.165
X7.415Y-4.585
X7.415Y-5.005
X7.415Y-5.425
X7.431Y-2.5338
X7.431Y-2.9538
X7.431Y-3.3738
X7.431Y-3.7938
X7.431Y-4.2138
X7.431Y-4.6338
X7.431Y-5.0538
X7.431Y-5.4738
X7.595Y-2.535
X7.595Y-2.955
X7.595Y-3.375
X7.595Y-3.795
X7.595Y-4.215
X7.595Y-4.635
X7.595Y-5.055
X7.595Y-5.475
X7.635Y-2.395
X7.635Y-2.535
X7.635Y-2.815
X7.635Y-2.955
X7.635Y-3.235
X7.635Y-3.375
X7.635Y-3.655
X7.635Y-3.795
X7.635Y-4.075
X7.635Y-4.215
X7.635Y-4.495
X7.635Y-4.635
X7.635Y-4.915
X7.635Y-5.055
X7.635Y-5.335
X7.635Y-5.475
X7.645Y-2.425
X7.645Y-2.845
X7.645Y-3.265
X7.645Y-3.685
X7.645Y-4.105
X7.645Y-4.525
X7.645Y-4.945
X7.645Y-5.365
X7.66Y-2.395
X7.66Y-2.815
X7.66Y-3.235
X7.66Y-3.655
X7.66Y-4.075
X7.66Y-4.495
X7.66Y-4.915
X7.66Y-5.335
X7.66Y-2.535
X7.66Y-2.955
X7.66Y-3.375
X7.66Y-3.795
X7.66Y-4.215
X7.66Y-4.635
X7.66Y-5.055
X7.66Y-5.475
T2
X5.565Y-2.415
X5.565Y-2.835
X5.565Y-3.255
X5.565Y-3.675
X5.565Y-4.095
X5.565Y-4.515
X5.565Y-4.935
X5.565Y-5.355
X6.435Y-2.415
X6.435Y-2.835
X6.435Y-3.255
X6.435Y-3.675
X6.435Y-4.095
X6.435Y-4.515
X6.435Y-4.935
X6.435Y-5.355
X7.305Y-2.415
X7.305Y-2.835
X7.305Y-3.255
X7.305Y-3.675
X7.305Y-4.095
X7.305Y-4.515
X7.305Y-4.935
X7.305Y-5.355
T0
M30
