G04 #@! TF.FileFunction,Soldermask,Bot*
%FSLAX46Y46*%
G04 Gerber Fmt 4.6, Leading zero omitted, Abs format (unit mm)*
G04 Created by KiCad (PCBNEW 4.0.5+dfsg1-4) date Sun Jun 17 20:11:44 2018*
%MOMM*%
%LPD*%
G01*
G04 APERTURE LIST*
%ADD10C,0.100000*%
%ADD11C,1.000000*%
%ADD12C,2.301600*%
%ADD13R,1.625600X1.625600*%
%ADD14R,1.351600X1.901600*%
G04 APERTURE END LIST*
D10*
D11*
X136012306Y-146304000D03*
X194695694Y-146301809D03*
X194691000Y-54607809D03*
X136017000Y-54610000D03*
D12*
X132202306Y-146306190D03*
X198505694Y-146301810D03*
X198505694Y-54607810D03*
X132207000Y-54610000D03*
D13*
X190881000Y-129667000D03*
X190881000Y-127127000D03*
X188341000Y-127127000D03*
X188341000Y-129667000D03*
X190881000Y-124587000D03*
X188341000Y-124587000D03*
D14*
X184991000Y-127127000D03*
X193991000Y-127127000D03*
X184991000Y-137795000D03*
X193991000Y-137795000D03*
D13*
X190881000Y-140335000D03*
X190881000Y-137795000D03*
X188341000Y-137795000D03*
X188341000Y-140335000D03*
X190881000Y-135255000D03*
X188341000Y-135255000D03*
D14*
X184991000Y-116459000D03*
X193991000Y-116459000D03*
D13*
X190881000Y-118999000D03*
X190881000Y-116459000D03*
X188341000Y-116459000D03*
X188341000Y-118999000D03*
X190881000Y-113919000D03*
X188341000Y-113919000D03*
X190881000Y-108331000D03*
X190881000Y-105791000D03*
X188341000Y-105791000D03*
X188341000Y-108331000D03*
X190881000Y-103251000D03*
X188341000Y-103251000D03*
D14*
X184991000Y-105791000D03*
X193991000Y-105791000D03*
D13*
X190881000Y-76327000D03*
X190881000Y-73787000D03*
X188341000Y-73787000D03*
X188341000Y-76327000D03*
X190881000Y-71247000D03*
X188341000Y-71247000D03*
D14*
X184991000Y-63119000D03*
X193991000Y-63119000D03*
D13*
X190881000Y-65659000D03*
X190881000Y-63119000D03*
X188341000Y-63119000D03*
X188341000Y-65659000D03*
X190881000Y-60579000D03*
X188341000Y-60579000D03*
D14*
X184991000Y-73787000D03*
X193991000Y-73787000D03*
D13*
X190881000Y-86995000D03*
X190881000Y-84455000D03*
X188341000Y-84455000D03*
X188341000Y-86995000D03*
X190881000Y-81915000D03*
X188341000Y-81915000D03*
D14*
X184991000Y-95123000D03*
X193991000Y-95123000D03*
X184991000Y-84455000D03*
X193991000Y-84455000D03*
D13*
X190881000Y-97663000D03*
X190881000Y-95123000D03*
X188341000Y-95123000D03*
X188341000Y-97663000D03*
X190881000Y-92583000D03*
X188341000Y-92583000D03*
D12*
X181737000Y-73787000D03*
X181737000Y-63119000D03*
X181737000Y-95123000D03*
X181737000Y-84455000D03*
X181737000Y-105791000D03*
X181737000Y-116459000D03*
X181737000Y-137795000D03*
X181737000Y-127127000D03*
D13*
X168783000Y-140335000D03*
X168783000Y-137795000D03*
X166243000Y-137795000D03*
X166243000Y-140335000D03*
X168783000Y-135255000D03*
X166243000Y-135255000D03*
D14*
X162893000Y-137795000D03*
X171893000Y-137795000D03*
X162893000Y-127127000D03*
X171893000Y-127127000D03*
D13*
X168783000Y-108331000D03*
X168783000Y-105791000D03*
X166243000Y-105791000D03*
X166243000Y-108331000D03*
X168783000Y-103251000D03*
X166243000Y-103251000D03*
D14*
X162893000Y-105791000D03*
X171893000Y-105791000D03*
X162893000Y-95123000D03*
X171893000Y-95123000D03*
D13*
X168783000Y-97663000D03*
X168783000Y-95123000D03*
X166243000Y-95123000D03*
X166243000Y-97663000D03*
X168783000Y-92583000D03*
X166243000Y-92583000D03*
X168783000Y-65659000D03*
X168783000Y-63119000D03*
X166243000Y-63119000D03*
X166243000Y-65659000D03*
X168783000Y-60579000D03*
X166243000Y-60579000D03*
D14*
X162893000Y-63119000D03*
X171893000Y-63119000D03*
D13*
X168783000Y-76327000D03*
X168783000Y-73787000D03*
X166243000Y-73787000D03*
X166243000Y-76327000D03*
X168783000Y-71247000D03*
X166243000Y-71247000D03*
D14*
X162893000Y-84455000D03*
X171893000Y-84455000D03*
D13*
X168783000Y-86995000D03*
X168783000Y-84455000D03*
X166243000Y-84455000D03*
X166243000Y-86995000D03*
X168783000Y-81915000D03*
X166243000Y-81915000D03*
D14*
X162893000Y-73787000D03*
X171893000Y-73787000D03*
D13*
X168783000Y-129667000D03*
X168783000Y-127127000D03*
X166243000Y-127127000D03*
X166243000Y-129667000D03*
X168783000Y-124587000D03*
X166243000Y-124587000D03*
D14*
X162893000Y-116459000D03*
X171893000Y-116459000D03*
D13*
X168783000Y-118999000D03*
X168783000Y-116459000D03*
X166243000Y-116459000D03*
X166243000Y-118999000D03*
X168783000Y-113919000D03*
X166243000Y-113919000D03*
D12*
X159639000Y-63119000D03*
X159639000Y-84455000D03*
X159639000Y-73787000D03*
X159639000Y-127127000D03*
X159639000Y-116459000D03*
X159639000Y-137795000D03*
X159639000Y-105791000D03*
X159639000Y-95123000D03*
D13*
X146685000Y-97663000D03*
X146685000Y-95123000D03*
X144145000Y-95123000D03*
X144145000Y-97663000D03*
X146685000Y-92583000D03*
X144145000Y-92583000D03*
D14*
X140795000Y-84455000D03*
X149795000Y-84455000D03*
X140795000Y-95123000D03*
X149795000Y-95123000D03*
X140795000Y-63119000D03*
X149795000Y-63119000D03*
X140795000Y-73787000D03*
X149795000Y-73787000D03*
D13*
X146685000Y-65659000D03*
X146685000Y-63119000D03*
X144145000Y-63119000D03*
X144145000Y-65659000D03*
X146685000Y-60579000D03*
X144145000Y-60579000D03*
X146685000Y-86995000D03*
X146685000Y-84455000D03*
X144145000Y-84455000D03*
X144145000Y-86995000D03*
X146685000Y-81915000D03*
X144145000Y-81915000D03*
X146685000Y-76327000D03*
X146685000Y-73787000D03*
X144145000Y-73787000D03*
X144145000Y-76327000D03*
X146685000Y-71247000D03*
X144145000Y-71247000D03*
D12*
X137541000Y-63119000D03*
X137541000Y-73787000D03*
X137541000Y-84455000D03*
X137541000Y-95123000D03*
D13*
X146685000Y-118999000D03*
X146685000Y-116459000D03*
X144145000Y-116459000D03*
X144145000Y-118999000D03*
X146685000Y-113919000D03*
X144145000Y-113919000D03*
D14*
X140795000Y-105791000D03*
X149795000Y-105791000D03*
D13*
X146685000Y-108331000D03*
X146685000Y-105791000D03*
X144145000Y-105791000D03*
X144145000Y-108331000D03*
X146685000Y-103251000D03*
X144145000Y-103251000D03*
D14*
X140795000Y-116459000D03*
X149795000Y-116459000D03*
D12*
X137541000Y-116459000D03*
X137541000Y-105791000D03*
D14*
X140795000Y-127127000D03*
X149795000Y-127127000D03*
D13*
X146685000Y-129667000D03*
X146685000Y-127127000D03*
X144145000Y-127127000D03*
X144145000Y-129667000D03*
X146685000Y-124587000D03*
X144145000Y-124587000D03*
D12*
X137541000Y-127127000D03*
D13*
X146685000Y-140335000D03*
X146685000Y-137795000D03*
X144145000Y-137795000D03*
X144145000Y-140335000D03*
X146685000Y-135255000D03*
X144145000Y-135255000D03*
D14*
X140795000Y-137795000D03*
X149795000Y-137795000D03*
D12*
X137541000Y-137795000D03*
M02*
