M48
;DRILL file {KiCad 4.0.5+dfsg1-4} date Sun Jun 17 20:11:46 2018
;FORMAT={-:-/ absolute / inch / decimal}
FMAT,2
INCH,TZ
T1C0.025
T2C0.087
%
G90
G05
M72
T1
X5.635Y-2.245
X5.635Y-2.305
X5.635Y-2.665
X5.635Y-2.725
X5.635Y-3.085
X5.635Y-3.145
X5.635Y-3.505
X5.635Y-3.565
X5.635Y-3.925
X5.635Y-3.985
X5.635Y-4.345
X5.635Y-4.405
X5.635Y-4.765
X5.635Y-4.825
X5.635Y-5.185
X5.635Y-5.245
X5.635Y-5.605
X5.635Y-5.665
X5.665Y-2.245
X5.665Y-2.305
X5.665Y-2.665
X5.665Y-2.725
X5.665Y-3.085
X5.665Y-3.145
X5.665Y-3.505
X5.665Y-3.565
X5.665Y-3.925
X5.665Y-3.985
X5.665Y-4.345
X5.665Y-4.405
X5.665Y-4.765
X5.665Y-4.825
X5.665Y-5.185
X5.665Y-5.245
X5.665Y-5.605
X5.665Y-5.665
X5.695Y-2.245
X5.695Y-2.305
X5.695Y-2.665
X5.695Y-2.725
X5.695Y-3.085
X5.695Y-3.145
X5.695Y-3.505
X5.695Y-3.565
X5.695Y-3.925
X5.695Y-3.985
X5.695Y-4.345
X5.695Y-4.405
X5.695Y-4.765
X5.695Y-4.825
X5.695Y-5.185
X5.695Y-5.245
X5.695Y-5.605
X5.695Y-5.665
X6.505Y-2.245
X6.505Y-2.305
X6.505Y-2.665
X6.505Y-2.725
X6.505Y-3.085
X6.505Y-3.145
X6.505Y-3.505
X6.505Y-3.565
X6.505Y-3.925
X6.505Y-3.985
X6.505Y-4.345
X6.505Y-4.405
X6.505Y-4.765
X6.505Y-4.825
X6.505Y-5.185
X6.505Y-5.245
X6.505Y-5.605
X6.505Y-5.665
X6.535Y-2.245
X6.535Y-2.305
X6.535Y-2.665
X6.535Y-2.725
X6.535Y-3.085
X6.535Y-3.145
X6.535Y-3.505
X6.535Y-3.565
X6.535Y-3.925
X6.535Y-3.985
X6.535Y-4.345
X6.535Y-4.405
X6.535Y-4.765
X6.535Y-4.825
X6.535Y-5.185
X6.535Y-5.245
X6.535Y-5.605
X6.535Y-5.665
X6.565Y-2.245
X6.565Y-2.305
X6.565Y-2.665
X6.565Y-2.725
X6.565Y-3.085
X6.565Y-3.145
X6.565Y-3.505
X6.565Y-3.565
X6.565Y-3.925
X6.565Y-3.985
X6.565Y-4.345
X6.565Y-4.405
X6.565Y-4.765
X6.565Y-4.825
X6.565Y-5.185
X6.565Y-5.245
X6.565Y-5.605
X6.565Y-5.665
X7.375Y-2.245
X7.375Y-2.305
X7.375Y-2.665
X7.375Y-2.725
X7.375Y-3.085
X7.375Y-3.145
X7.375Y-3.505
X7.375Y-3.565
X7.375Y-3.925
X7.375Y-3.985
X7.375Y-4.345
X7.375Y-4.405
X7.375Y-4.765
X7.375Y-4.825
X7.375Y-5.185
X7.375Y-5.245
X7.375Y-5.605
X7.375Y-5.665
X7.405Y-2.245
X7.405Y-2.305
X7.405Y-2.665
X7.405Y-2.725
X7.405Y-3.085
X7.405Y-3.145
X7.405Y-3.505
X7.405Y-3.565
X7.405Y-3.925
X7.405Y-3.985
X7.405Y-4.345
X7.405Y-4.405
X7.405Y-4.765
X7.405Y-4.825
X7.405Y-5.185
X7.405Y-5.245
X7.405Y-5.605
X7.405Y-5.665
X7.435Y-2.245
X7.435Y-2.305
X7.435Y-2.665
X7.435Y-2.725
X7.435Y-3.085
X7.435Y-3.145
X7.435Y-3.505
X7.435Y-3.565
X7.435Y-3.925
X7.435Y-3.985
X7.435Y-4.345
X7.435Y-4.405
X7.435Y-4.765
X7.435Y-4.825
X7.435Y-5.185
X7.435Y-5.245
X7.435Y-5.605
X7.435Y-5.665
T2
X5.2048Y-5.7601
X5.205Y-2.15
X5.415Y-2.485
X5.415Y-2.905
X5.415Y-3.325
X5.415Y-3.745
X5.415Y-4.165
X5.415Y-4.585
X5.415Y-5.005
X5.415Y-5.425
X6.285Y-2.485
X6.285Y-2.905
X6.285Y-3.325
X6.285Y-3.745
X6.285Y-4.165
X6.285Y-4.585
X6.285Y-5.005
X6.285Y-5.425
X7.155Y-2.485
X7.155Y-2.905
X7.155Y-3.325
X7.155Y-3.745
X7.155Y-4.165
X7.155Y-4.585
X7.155Y-5.005
X7.155Y-5.425
X7.8152Y-2.1499
X7.8152Y-5.7599
T0
M30
